<svg width="30" height="30" viewBox="0 0 30 30" fill="none" xmlns="http://www.w3.org/2000/svg">
<path d="M29.9034 9.41604C29.8866 8.21227 29.6504 7.02046 29.2054 5.89394C28.8194 4.94372 28.23 4.08076 27.4747 3.36018C26.7195 2.6396 25.8149 2.07725 24.819 1.70906C23.6534 1.29162 22.422 1.0659 21.1773 1.04152C19.5746 0.973174 19.0665 0.954102 14.9983 0.954102C10.9301 0.954102 10.4087 0.954102 8.81775 1.04152C7.57357 1.06608 6.34276 1.2918 5.1777 1.70906C4.18157 2.07699 3.27691 2.63925 2.5216 3.35986C1.76629 4.08047 1.17696 4.94357 0.791315 5.89394C0.352895 7.00514 0.11682 8.17967 0.0932919 9.36677C0.021657 10.8974 0 11.3821 0 15.2634C0 19.1447 -1.24121e-08 19.6406 0.0932919 21.1601C0.118281 22.3489 0.353176 23.5219 0.791315 24.6361C1.17761 25.5862 1.76737 26.4489 2.52294 27.1692C3.2785 27.8895 4.18325 28.4515 5.17937 28.8194C6.34124 29.2536 7.57226 29.4955 8.81942 29.5346C10.4237 29.6029 10.9318 29.6236 15 29.6236C19.0682 29.6236 19.5896 29.6236 21.1806 29.5346C22.4253 29.5112 23.6568 29.286 24.8223 28.8686C25.818 28.5 26.7223 27.9375 27.4775 27.217C28.2327 26.4965 28.8223 25.6337 29.2087 24.6838C29.6468 23.5712 29.8817 22.3982 29.9067 21.2078C29.9783 19.6788 30 19.194 30 15.3111C29.9967 11.4298 29.9967 10.9371 29.9034 9.41604ZM14.9883 22.6032C10.7336 22.6032 7.28676 19.3148 7.28676 15.2555C7.28676 11.1962 10.7336 7.9077 14.9883 7.9077C17.0309 7.9077 18.9899 8.68184 20.4342 10.0598C21.8785 11.4378 22.6899 13.3067 22.6899 15.2555C22.6899 17.2042 21.8785 19.0732 20.4342 20.4511C18.9899 21.8291 17.0309 22.6032 14.9883 22.6032ZM22.9964 9.34928C22.7605 9.34949 22.5269 9.30532 22.3089 9.21929C22.091 9.13326 21.8929 9.00706 21.7261 8.84792C21.5593 8.68877 21.427 8.49981 21.3368 8.29184C21.2467 8.08387 21.2004 7.86098 21.2006 7.63592C21.2006 7.41102 21.247 7.18832 21.3372 6.98054C21.4274 6.77276 21.5597 6.58397 21.7263 6.42494C21.893 6.26592 22.0909 6.13977 22.3087 6.05371C22.5265 5.96764 22.7599 5.92334 22.9956 5.92334C23.2313 5.92334 23.4648 5.96764 23.6825 6.05371C23.9003 6.13977 24.0982 6.26592 24.2649 6.42494C24.4316 6.58397 24.5638 6.77276 24.654 6.98054C24.7442 7.18832 24.7907 7.41102 24.7907 7.63592C24.7907 8.5832 23.9877 9.34928 22.9964 9.34928Z" fill="white"/>
<path d="M14.9881 20.0283C17.7511 20.0283 19.9909 17.8914 19.9909 15.2554C19.9909 12.6193 17.7511 10.4824 14.9881 10.4824C12.2252 10.4824 9.98535 12.6193 9.98535 15.2554C9.98535 17.8914 12.2252 20.0283 14.9881 20.0283Z" fill="white"/>
</svg>
