<svg id="Camada_1" data-name="Camada 1" xmlns="http://www.w3.org/2000/svg" viewBox="0 0 532.42 532.42"><defs><style>.cls-1{fill:#00151d;}.cls-2{fill:#fff;}.cls-2,.cls-3{fill-rule:evenodd;}.cls-3{fill:#82bc45;}</style></defs><circle class="cls-1" cx="266.21" cy="266.21" r="266.21"/><path class="cls-2" d="M748.41,602.75H733V527.51h15.38V536c3.59-6.35,11.41-9.25,18.41-9.25h4.65v15.07l-.28.24c-16.13-1.65-22.78,5.23-22.78,19v41.73ZM462.46,499.62H479v63c0,37.85,50.54,35.15,50.54-.09V499.62h15.64v103.1H529.51v-9.28c-8.07,7.51-17.35,11.13-26.39,11.44-21,.7-40.66-16.47-40.66-44.37V499.62Zm111,103H558.14V499.66h15.32v37a40.77,40.77,0,0,1,28.22-10.31c24.72.85,37.83,18.8,38.05,37.3.24,20-14.38,40.67-39.39,41.49-9.54.31-19.17-3.3-26.88-11.62v9ZM599,540.07a25.64,25.64,0,1,0,25.64,25.64A25.63,25.63,0,0,0,599,540.07Zm123.73,30.39H662.11c4.22,14,14.46,21.3,25.25,21.13,7.54-.12,15.34-3.86,21.53-11.43l10.79,7.26c-10.45,20-42.19,21.42-58.68,8.52-11.76-9.21-14.9-20.64-14.72-31.72.4-24.57,21.07-38.72,40.84-38.49,19.15.21,37.45,13.93,35.65,44.73Zm-15.51-12.11c-1.84-22.45-39.2-27.36-45,0Z" transform="translate(-350.79 -350.08)"/><path class="cls-3" d="M482.89,714.21V688.84h51.43V671.42H482.89V646h53V628.63H462.94v103h72.91V714.21Zm286.28-34.46H749.84a11.19,11.19,0,0,0-4.07-6.55,22.33,22.33,0,0,0-11.7-4.6c-6.82-.66-14.61,2.82-14.84,7-.14,2.56,2.62,5.38,10.28,7.62,12.83,3.76,29.23,2.13,38.22,13.85,10.51,13.71-.51,35.33-30.81,36.25-18.06.56-37-7.33-39.6-26.53l17.43-4.18c1.73,4.68,3.83,9.17,8.67,12.16,6.64,4.1,26.3,4.93,27.54-4.55.18-1.38-.42-2.78-2.21-4-3.42-2.41-9.7-3.14-15.27-4.28-24.12-3.32-33-11.17-34.62-21.12a20,20,0,0,1,1.89-12.7,27.34,27.34,0,0,1,5.52-7.09c6.93-6.45,17.79-9.27,28.32-9,14.88.46,33.87,8.65,34.58,27.76Zm-77,34.17v17.44H671c-13.07,0-20.41-8.62-20.41-21V672.74H636V655.55h14.54v-22h19.52v22h22.06v17.19H670.07v32.89c0,7.22,2.51,8.29,9.4,8.29Zm-84-52.12v-6.41h19.9v75.92h-19.9v-7.07c-8,6.3-17.39,9.43-26.35,9-20.16-1-39.47-17.86-39-40.93.47-23.35,21.49-39.2,42-38.94a37.36,37.36,0,0,1,23.33,8.45Zm-20.75,8.64a22.87,22.87,0,1,0,20.42,20.42A22.88,22.88,0,0,0,587.42,670.44Z" transform="translate(-350.79 -350.08)"/></svg>