<svg width="35" height="35" viewBox="0 0 35 35" fill="none" xmlns="http://www.w3.org/2000/svg">
<path d="M34.6917 2.86447C34.8759 2.58705 34.9817 2.26459 34.9978 1.93148C35.0139 1.59837 34.9397 1.26712 34.7832 0.973064C34.6266 0.679009 34.3935 0.433183 34.1087 0.26181C33.824 0.0904382 33.4983 -4.98911e-05 33.1664 2.06367e-08H3.83242C3.5008 0.000172148 3.17542 0.0907197 2.89096 0.261999C2.6065 0.433278 2.3736 0.678874 2.21708 0.97263C2.06055 1.26639 1.98625 1.5973 2.00209 1.93013C2.01794 2.26295 2.12334 2.58523 2.30706 2.86263L16.666 24.5055V31.3158H11.1659V35H25.8329V31.3158H20.3328V24.5055L34.6917 2.86447ZM29.7416 3.68421L26.0749 9.21053H10.9239L7.25716 3.68421H29.7416Z" fill="white"/>
</svg>
