<svg width="35" height="35" viewBox="0 0 35 35" fill="none" xmlns="http://www.w3.org/2000/svg">
<path d="M8.75016 17.5H5.8335C5.8335 23.4383 10.2975 28.3442 16.0418 29.066V32.0833H18.9585V29.066C24.7029 28.3442 29.1668 23.4398 29.1668 17.5H26.2502C26.2502 22.3256 22.3258 26.25 17.5002 26.25C12.6745 26.25 8.75016 22.3256 8.75016 17.5Z" fill="white"/>
<path d="M11.6665 17.4999C11.6665 20.717 14.2828 23.3333 17.4998 23.3333C20.7169 23.3333 23.3332 20.717 23.3332 17.4999H20.4165V14.5833H23.3332V11.6666H20.4165V8.74994H23.3332C23.3332 5.51682 20.73 2.88599 17.5305 2.88599C17.4278 2.8866 17.3256 2.89883 17.2257 2.92244C15.7283 2.99504 14.3162 3.64046 13.2814 4.72517C12.2467 5.80987 11.6685 7.25084 11.6665 8.74994H17.4998V11.6666H11.6665V14.5833H17.4998V17.4999H11.6665Z" fill="white"/>
</svg>
